<?xml version="1.0" encoding="utf-8"?>
<!-- Generator: Adobe Illustrator 18.0.0, SVG Export Plug-In . SVG Version: 6.00 Build 0)  -->
<!DOCTYPE svg PUBLIC "-//W3C//DTD SVG 1.1//EN" "http://www.w3.org/Graphics/SVG/1.1/DTD/svg11.dtd">
<svg version="1.1" id="Layer_1" xmlns="http://www.w3.org/2000/svg" xmlns:xlink="http://www.w3.org/1999/xlink" x="0px" y="0px"
	 viewBox="0 0 1000 1000" enable-background="new 0 0 1000 1000" xml:space="preserve">
<g>
	<g>
		<rect fill="#FFFFFF" fill-opacity="0" width="1000" height="1000"/>
		<path fill="#FFFFFF" d="M208.3,541.7h494.2L551.3,723.3c-14.7,17.7-12.3,44,5.4,58.8s44,12.3,58.8-5.4l0,0l208.3-250
			c1.4-2,2.7-4.1,3.8-6.3c0-2.1,2.1-3.3,2.9-5.4c1.9-4.8,2.9-9.9,2.9-15c0-5.1-1-10.2-2.9-15c0-2.1-2.1-3.3-2.9-5.4
			c-1.1-2.2-2.3-4.3-3.8-6.2l-208.3-250c-7.9-9.5-19.7-15-32.1-15c-9.7,0-19.2,3.4-26.7,9.6c-17.7,14.7-20.2,41-5.5,58.7
			c0,0,0,0.1,0.1,0.1l151.3,181.7H208.3c-23,0-41.7,18.7-41.7,41.7C166.7,523,185.3,541.7,208.3,541.7z"/>
	</g>
</g>
</svg>
