<?xml version="1.0" encoding="utf-8"?>
<!-- Generator: Adobe Illustrator 18.0.0, SVG Export Plug-In . SVG Version: 6.00 Build 0)  -->
<!DOCTYPE svg PUBLIC "-//W3C//DTD SVG 1.1//EN" "http://www.w3.org/Graphics/SVG/1.1/DTD/svg11.dtd">
<svg version="1.1" id="Layer_1" xmlns="http://www.w3.org/2000/svg" xmlns:xlink="http://www.w3.org/1999/xlink" x="0px" y="0px"
	 viewBox="0 0 1000 1000" enable-background="new 0 0 1000 1000" xml:space="preserve">
<g>
	<g>
		<rect fill="#EE333E" fill-opacity="0" width="1000" height="1000"/>
		<path fill="#EE333E" d="M500,875c-11.1,0.1-21.7-4.3-29.6-12.1L146.7,538.7c-84.5-85.4-84.5-222.9,0-308.3
			c85.2-85,223.1-85,308.3,0l45,45l45-45c85.2-85,223.1-85,308.3,0c84.5,85.4,84.5,222.9,0,308.3L529.6,862.9
			C521.7,870.7,511.1,875.1,500,875z M300.8,250c-35.6-0.2-69.8,13.9-95,39.2c-52.4,52.7-52.4,137.8,0,190.4L500,774.2l294.2-294.6
			c52.4-52.7,52.4-137.8,0-190.4c-53.3-50.4-136.7-50.4-190,0l-74.6,75c-16.2,16.3-42.6,16.4-58.9,0.2c-0.1-0.1-0.2-0.2-0.2-0.2
			l-74.6-75C370.7,263.9,336.5,249.8,300.8,250z"/>
	</g>
</g>
</svg>
