<?xml version="1.0" encoding="utf-8"?>
<!-- Generator: Adobe Illustrator 18.0.0, SVG Export Plug-In . SVG Version: 6.00 Build 0)  -->
<!DOCTYPE svg PUBLIC "-//W3C//DTD SVG 1.1//EN" "http://www.w3.org/Graphics/SVG/1.1/DTD/svg11.dtd">
<svg version="1.1" id="Layer_1" xmlns="http://www.w3.org/2000/svg" xmlns:xlink="http://www.w3.org/1999/xlink" x="0px" y="0px"
	 viewBox="0 280.4 1000.1 439.2" enable-background="new 0 280.4 1000.1 439.2" xml:space="preserve">
<g>
	<g>
		<path d="M679,281.1v185.6h-43V356.4l-38.2,110.2h-37.2l-38.4-110.5v110.5h-43V281.1h52.5l48,132.1l47-132.1H679z"/>
		<path d="M835.3,404.4h-97.2c0.5,10.6,3.1,18.1,8,22.8s11,6.9,18.6,6.9c6.4,0,11.6-1.6,15.8-4.8c4.2-3.1,7-7.3,8.2-12.3h45.4
			c-1.9,9.9-5.8,18.7-12.1,26.5c-6.2,7.8-14.1,13.9-23.6,18.4c-9.5,4.4-20.2,6.6-31.9,6.6c-13.7,0-25.9-2.9-36.6-8.7
			c-10.7-5.8-18.9-14.1-25-25c-6-10.9-9.1-23.6-9.1-38.2c0-14.8,3-27.5,8.9-38.3s14.3-19,25-24.9c10.7-5.8,22.9-8.7,36.7-8.7
			c13.9,0,26.1,2.9,36.7,8.6c10.6,5.7,18.7,13.7,24.5,23.9s8.7,22.2,8.7,35.5C836.6,396.4,836.2,400.2,835.3,404.4z M785.7,365.6
			c-5.1-4.6-11.4-6.9-18.9-6.9c-7.9,0-14.4,2.3-19.6,7.1c-5.2,4.6-8.1,11.5-8.8,20.6H793C793.4,377.1,790.8,370.3,785.7,365.6z"/>
		<path d="M939.8,332.1c7.7,4.9,13.4,11.5,16.8,19.9v-71.1h43v185.8h-43v-25.3c-3.5,8.4-9.2,15-16.8,19.9s-17,7.3-27.6,7.3
			c-11.5,0-21.8-2.9-31-8.7s-16.4-14.1-21.6-25s-7.9-23.6-7.9-38.2c0-14.8,2.7-27.5,7.9-38.3s12.4-19,21.6-24.9
			c9.2-5.8,19.5-8.7,31-8.7C922.9,324.9,932.1,327.2,939.8,332.1z M903.7,371.5c-5.6,6-8.4,14.4-8.4,25.1s2.8,19,8.4,25.1
			s13,9.1,22.2,9.1c9.1,0,16.5-3.1,22.2-9.3c5.8-6.2,8.7-14.5,8.7-24.9c0-10.6-2.9-18.8-8.7-25s-13.1-9.2-22.2-9.2
			C916.8,362.5,909.4,365.5,903.7,371.5z"/>
		<path fill="#EE333E" d="M616.3,541c14.3,8.1,25.6,19.5,33.8,33.9c8.2,14.5,12.4,30.9,12.4,49.1s-4.2,34.6-12.5,49.2
			c-8.4,14.5-19.6,25.9-33.9,34.1c-14.3,8.1-30.2,12.2-47.5,12.2s-33.2-4.1-47.5-12.2c-14.3-8.1-25.7-19.5-33.9-34.1
			c-8.4-14.5-12.5-31-12.5-49.2s4.2-34.6,12.5-49.1c8.4-14.5,19.6-25.8,33.9-33.9c14.3-8.1,30.2-12.2,47.5-12.2
			C586.1,528.7,602,532.8,616.3,541z M533.3,584.9c-8.7,9.5-13,22.6-13,39.1c0,16.4,4.3,29.3,13,38.9c8.7,9.6,20.4,14.5,35.2,14.5
			c14.5,0,26.2-4.9,35.1-14.5c8.8-9.6,13.1-22.6,13.1-38.9c0-16.4-4.3-29.3-13-38.9s-20.4-14.5-35.2-14.5S542,575.4,533.3,584.9z"/>
		<path fill="#EE333E" d="M815.8,586.1c9.9,11.3,14.9,26.7,14.9,46.3v87.1h-45.1v-81.9c0-9.9-2.6-17.5-7.8-23
			c-5.2-5.6-12.1-8.2-20.7-8.2c-9.2,0-16.4,2.9-21.7,8.7s-8,14.1-8,24.7v79.8h-45.1V570.8h45.1v26.8c4.2-8.8,10.5-15.7,18.8-20.8
			c8.4-5.1,18.1-7.7,29.4-7.7C792.6,569.2,805.9,574.9,815.8,586.1z"/>
		<path fill="#EE333E" d="M998.7,652.5H896.9c0.6,11,3.4,19,8.5,23.8c5.1,4.9,11.6,7.2,19.5,7.2c6.6,0,12.2-1.6,16.6-5
			s7.3-7.7,8.7-12.9h47.6c-2,10.3-6.2,19.6-12.7,27.8c-6.5,8.1-14.8,14.5-24.7,19.2s-21.1,7-33.4,7c-14.4,0-27.2-3-38.3-9.1
			s-19.9-14.8-26.2-26.2s-9.5-24.7-9.5-40.1c0-15.4,3.1-28.8,9.3-40.2c6.3-11.3,15-20,26.2-26c11.3-6,24-9.1,38.4-9.1
			c14.5,0,27.4,3,38.4,8.9s19.6,14.4,25.7,25.1c6,10.8,9.1,23.2,9.1,37.3C1000,644,999.5,648.1,998.7,652.5z M946.7,611.8
			c-5.3-4.9-12-7.2-19.9-7.2c-8.2,0-15.1,2.4-20.6,7.3c-5.5,4.9-8.5,12.1-9.2,21.6h57.4C954.6,623.8,952,616.6,946.7,611.8z"/>
	</g>
	<g>
		<g>
			<path fill="#EE333E" d="M142.7,605.5c-31.5,0-57,25.6-57,57s25.6,57,57,57s57-25.6,57-57C199.7,631,174.2,605.5,142.7,605.5z
				 M142.7,676.4c-7.8,0-13.9-6.3-13.9-13.9c0-7.7,6.3-13.9,13.9-13.9c7.8,0,13.9,6.3,13.9,13.9c0,3.7-1.5,7.3-4.1,9.9
				C149.9,675,146.5,676.4,142.7,676.4z"/>
			<path fill="#EE333E" d="M328.7,605.5c-31.5,0-57,25.6-57,57s25.6,57,57,57s57-25.6,57-57S360.2,605.5,328.7,605.5z M328.7,676.4
				c-7.8,0-13.9-6.3-13.9-13.9c0-7.7,6.3-13.9,13.9-13.9c7.7,0,13.9,6.3,13.9,13.9c0,3.7-1.5,7.3-4.1,9.9
				C336,674.9,332.4,676.4,328.7,676.4z"/>
			<path fill="#EE333E" d="M388.7,361.8H105l-4.5-27.3c-5.2-31.4-32.4-54.2-64.1-54.1H21.5C9.6,280.4,0,290,0,301.9
				c0,11.8,9.6,21.5,21.5,21.5h14.9c10.7,0,19.9,7.8,21.7,18.4l34.8,205.6c5.2,31.2,32.4,54.1,64.1,54h198.5
				c11.8,0,21.5-9.6,21.5-21.5s-9.6-21.5-21.5-21.5H157.1c-10.7,0-19.9-7.8-21.7-18.4l-0.2-1.7H315c28.3,0,53.4-18.4,62-45.4
				l32.5-103.1c2.1-6.5,0.9-13.7-3.3-19.2C402.1,365,395.6,361.8,388.7,361.8z M335.8,479.9c-2.8,9.2-11.3,15.3-20.9,15.3h-187
				l-15.3-90.4h246.9L335.8,479.9z"/>
		</g>
	</g>
	<rect x="712" y="510.3" fill="#EE333E" width="74.6" height="17.5"/>
</g>
</svg>
