<?xml version="1.0" encoding="utf-8"?>
<!-- Generator: Adobe Illustrator 18.0.0, SVG Export Plug-In . SVG Version: 6.00 Build 0)  -->
<!DOCTYPE svg PUBLIC "-//W3C//DTD SVG 1.1//EN" "http://www.w3.org/Graphics/SVG/1.1/DTD/svg11.dtd">
<svg version="1.1" id="Layer_1" xmlns="http://www.w3.org/2000/svg" xmlns:xlink="http://www.w3.org/1999/xlink" x="0px" y="0px"
	 viewBox="0 0 1000 1000" enable-background="new 0 0 1000 1000" xml:space="preserve">
<g>
	<g>
		<rect fill="#EE333E" fill-opacity="0" width="1000" height="1000"/>
		<path fill="#EE333E" d="M500,458.3c92,0,166.7-74.6,166.7-166.7S592,125,500,125s-166.7,74.6-166.7,166.7S408,458.3,500,458.3z
			 M500,208.3c46,0,83.3,37.3,83.3,83.3S546,375,500,375s-83.3-37.3-83.3-83.3S454,208.3,500,208.3z"/>
		<path fill="#EE333E" d="M500,541.7c-161.1,0-291.7,130.6-291.7,291.7c0,23,18.7,41.7,41.7,41.7s41.7-18.7,41.7-41.7
			C291.7,718.3,384.9,625,500,625s208.3,93.3,208.3,208.3c0,23,18.7,41.7,41.7,41.7s41.7-18.7,41.7-41.7
			C791.7,672.3,661.1,541.7,500,541.7z"/>
	</g>
</g>
</svg>
