<?xml version="1.0" encoding="utf-8"?>
<!-- Generator: Adobe Illustrator 18.0.0, SVG Export Plug-In . SVG Version: 6.00 Build 0)  -->
<!DOCTYPE svg PUBLIC "-//W3C//DTD SVG 1.1//EN" "http://www.w3.org/Graphics/SVG/1.1/DTD/svg11.dtd">
<svg version="1.1" id="Layer_1" xmlns="http://www.w3.org/2000/svg" xmlns:xlink="http://www.w3.org/1999/xlink" x="0px" y="0px"
	 viewBox="0 0 1000 1000" enable-background="new 0 0 1000 1000" xml:space="preserve">
<g>
	<g>
		<rect fill="#EE333E" fill-opacity="0" width="1000" height="1000"/>
		<path fill="#EE333E" d="M878.3,291.7c-14.6-25.4-41.5-41.2-70.8-41.7H274.2L250,155.8c-5-18.7-22.3-31.5-41.7-30.8H125
			c-23,0-41.7,18.7-41.7,41.7s18.7,41.7,41.7,41.7h51.7l115,427.5c5,18.7,22.3,31.5,41.7,30.8h375c15.7,0,30-8.9,37.1-22.9
			l136.7-273.3C894.1,345.2,892.7,315.6,878.3,291.7z M682.5,583.3H365l-67.9-250h510.4L682.5,583.3z"/>
		<circle fill="#EE333E" cx="312.5" cy="812.5" r="62.5"/>
		<circle fill="#EE333E" cx="729.2" cy="812.5" r="62.5"/>
	</g>
</g>
</svg>
